<svg width="399" height="230" viewBox="0 0 399 230" fill="none" xmlns="http://www.w3.org/2000/svg">
<path fill-rule="evenodd" clip-rule="evenodd" d="M0.28929 209.271L5.85923 185.599C5.94563 185.232 6.2203 184.947 6.5873 184.859C16.6053 182.478 41.8968 177.334 68.3179 174.571C68.7287 174.528 69.0664 174.257 69.1753 173.859C81.0206 130.52 107.712 36.6783 121.722 0.711254C121.89 0.278572 122.297 0.0431142 122.757 0.110538C170.054 7.05177 282.666 29.5399 362.197 65.1394C362.659 65.3463 362.895 65.8349 362.743 66.3179C355.522 89.2798 334.716 152.356 306.812 228.646C306.636 229.129 306.143 229.409 305.646 229.281C270.036 220.167 196.604 201.064 176.9 194.79C176.379 194.624 176.126 194.097 176.29 193.574C183.098 171.824 196.976 127.575 201.247 114.287C201.397 113.82 201.852 113.553 202.337 113.629C224.908 117.138 252.577 124.433 274.196 133.655C274.658 133.852 274.897 134.361 274.759 134.845L265.273 168.046C265.122 168.574 264.573 168.881 264.044 168.734L256.867 166.741C256.374 166.604 256.064 166.119 256.153 165.616C256.482 163.761 257.034 160.894 257.689 157.496C258.197 154.855 258.767 151.893 259.343 148.837C259.434 148.355 259.163 147.878 258.7 147.715C246.643 143.465 231.557 140.133 220.38 138.154C219.878 138.066 219.393 138.37 219.25 138.86L210.791 167.998C210.632 168.544 210.948 169.11 211.501 169.245C227.318 173.131 260.709 181.673 277.514 187.174C278.057 187.352 278.629 187.038 278.782 186.487L306.27 87.8251C306.403 87.3502 306.193 86.8605 305.743 86.6591C285.336 77.5263 229.501 57.4328 162.313 47.1241C161.842 47.0519 161.393 47.2942 161.231 47.742C153.872 68.0856 134.454 127.561 113.195 209.744C113.081 210.186 112.682 210.5 112.226 210.5H1.26271C0.617859 210.5 0.141594 209.899 0.28929 209.271ZM325.013 209.146L336.718 178.244C336.883 177.808 337.32 177.543 337.781 177.606C348 179.006 371.852 182.53 392.373 186.382C392.756 186.454 393.061 186.743 393.155 187.121L398.689 209.257C398.847 209.889 398.37 210.5 397.719 210.5H325.948C325.249 210.5 324.765 209.8 325.013 209.146Z" fill="url(#paint0_linear_34_368)"/>
<defs>
<linearGradient id="paint0_linear_34_368" x1="399" y1="211" x2="339.5" y2="189" gradientUnits="userSpaceOnUse">
<stop offset="1" stop-color="#343633"/>
</linearGradient>
</defs>
</svg>
