<svg width="210" height="26" viewBox="0 0 210 26" fill="none" xmlns="http://www.w3.org/2000/svg">
<path fill-rule="evenodd" clip-rule="evenodd" d="M51.9898 0C57.1961 0 61.2178 1.06881 64.0549 3.20642C66.892 5.34403 68.3106 8.45648 68.3106 12.5438C68.3106 16.6311 66.892 19.7435 64.0549 21.8812C61.2178 24.0188 57.1961 25.0876 51.9898 25.0876C46.7836 25.0876 42.7619 24.0305 39.9248 21.9164C37.1169 19.7788 35.713 16.6546 35.713 12.5438C35.713 8.43299 37.1169 5.32054 39.9248 3.20642C42.7619 1.06881 46.7836 0 51.9898 0ZM51.9898 5.81383C49.9132 5.81383 48.3337 6.31887 47.2515 7.32895C46.1693 8.33903 45.6282 9.70147 45.6282 11.4163V13.6713C45.6282 15.3861 46.1693 16.7485 47.2515 17.7586C48.3337 18.7687 49.9132 19.2737 51.9898 19.2737C54.0665 19.2737 55.6459 18.7687 56.7281 17.7586C57.8396 16.7485 58.3953 15.3861 58.3953 13.6713V11.4163C58.3953 9.70147 57.8396 8.33903 56.7281 7.32895C55.6459 6.31887 54.0665 5.81383 51.9898 5.81383ZM159.715 3.20642C156.878 1.06881 152.856 0 147.65 0C142.443 0 138.422 1.06881 135.585 3.20642C132.777 5.32054 131.373 8.43299 131.373 12.5438C131.373 16.6546 132.777 19.7788 135.585 21.9164C138.422 24.0305 142.443 25.0876 147.65 25.0876C152.856 25.0876 156.878 24.0188 159.715 21.8812C162.552 19.7435 163.97 16.6311 163.97 12.5438C163.97 8.45648 162.552 5.34403 159.715 3.20642ZM142.911 7.32895C143.994 6.31887 145.573 5.81383 147.65 5.81383C149.726 5.81383 151.306 6.31887 152.388 7.32895C153.499 8.33903 154.055 9.70147 154.055 11.4163V13.6713C154.055 15.3861 153.499 16.7485 152.388 17.7586C151.306 18.7687 149.726 19.2737 147.65 19.2737C145.573 19.2737 143.994 18.7687 142.911 17.7586C141.829 16.7485 141.288 15.3861 141.288 13.6713V11.4163C141.288 9.70147 141.829 8.33903 142.911 7.32895ZM187.68 9.90116L191.584 24.6648H202.245L209.309 0.422852H199.657L196.41 14.1646H196.235L192.593 0.422852H183.029L179.607 14.1646H179.432L175.966 0.422852H165.875L172.938 24.6648H183.599L187.504 9.90116H187.68ZM103.672 0.422852H113.368V18.4634H128.855V24.6648H103.672V0.422852ZM83.6662 0.422852H73.9703V24.6648H99.1534V18.4634H83.6662V0.422852ZM20.3571 15.4683V24.6648H30.053V0.422852H20.3571V9.26693H9.69593V0.422852H0V24.6648H9.69593V15.4683H20.3571Z" fill="#383938"/>
</svg>
